<svg version="1.1" id="Layer_1" xmlns="http://www.w3.org/2000/svg" xmlns:xlink="http://www.w3.org/1999/xlink" x="0px" y="0px"
	 width="100%" viewBox="0 0 200 200" enable-background="new 0 0 200 200" xml:space="preserve">
<path fill="#FBFBFB" opacity="1.000000" stroke="none" 
	d="
M1.000000,79.000000 
	C1.000000,52.666672 1.000000,26.833345 1.000000,1.000014 
	C67.666649,1.000009 134.333298,1.000009 200.999954,1.000005 
	C200.999969,67.666634 200.999969,134.333267 200.999985,200.999908 
	C134.333389,200.999939 67.666771,200.999939 1.000081,200.999969 
	C1.000000,160.500000 1.000000,120.000000 1.000000,79.000000 
M143.500092,14.241430 
	C102.002098,14.241317 60.503925,14.297937 19.006386,14.160718 
	C14.433206,14.145597 12.939424,15.578074 12.950152,20.187084 
	C13.076240,74.350830 13.085504,128.515121 12.937108,182.678757 
	C12.924126,187.417511 14.596312,188.660355 19.030890,188.652237 
	C73.528053,188.552444 128.025528,188.550873 182.522659,188.658279 
	C186.846359,188.666794 188.335495,187.290558 188.326599,182.909775 
	C188.216309,128.579300 188.212341,74.248436 188.330933,19.918001 
	C188.340637,15.475097 186.760544,14.113885 182.497299,14.175899 
	C169.833939,14.360104 157.166153,14.241622 143.500092,14.241430 
z"/>
<path fill="#060606" opacity="1.000000" stroke="none" 
	d="
M144.000092,14.241442 
	C157.166153,14.241622 169.833939,14.360104 182.497299,14.175899 
	C186.760544,14.113885 188.340637,15.475097 188.330933,19.918001 
	C188.212341,74.248436 188.216309,128.579300 188.326599,182.909775 
	C188.335495,187.290558 186.846359,188.666794 182.522659,188.658279 
	C128.025528,188.550873 73.528053,188.552444 19.030890,188.652237 
	C14.596312,188.660355 12.924126,187.417511 12.937108,182.678757 
	C13.085504,128.515121 13.076240,74.350830 12.950152,20.187084 
	C12.939424,15.578074 14.433206,14.145597 19.006386,14.160718 
	C60.503925,14.297937 102.002098,14.241317 144.000092,14.241442 
M105.454697,37.281803 
	C100.172798,52.507629 94.444969,67.597908 89.761444,83.005623 
	C86.488693,93.772217 83.830917,104.868828 82.403305,116.010857 
	C81.109909,126.105347 85.496460,128.766129 93.878586,123.132790 
	C103.072166,116.954094 111.777000,109.868202 119.906647,102.327858 
	C132.637726,90.519623 144.039978,77.456886 151.448425,61.476543 
	C159.063553,45.050365 152.824326,30.851723 135.362396,26.076027 
	C117.938622,21.310757 100.528503,23.126751 85.053665,32.076424 
	C54.400429,49.804317 37.219795,77.139961 34.682301,112.379059 
	C33.083607,134.580688 39.722546,154.806107 58.411594,168.913895 
	C81.921288,186.660645 118.804924,184.872894 143.024796,165.308975 
	C151.119827,158.770126 157.420029,150.990860 159.221283,140.341705 
	C161.156052,128.903152 154.226440,117.483772 143.638840,115.347755 
	C133.453995,113.292999 123.777405,114.708527 115.162621,121.051117 
	C110.098190,124.779778 108.316185,130.426712 110.883575,134.942688 
	C113.726845,139.943939 118.379837,141.134781 124.769058,138.506256 
	C129.990585,136.358139 135.111786,133.898773 140.466492,132.159317 
	C146.816422,130.096573 151.442093,131.202667 152.909973,134.875839 
	C155.005630,140.119995 151.410538,143.582993 147.967346,146.328171 
	C131.057312,159.810089 112.218010,167.335190 90.091286,164.278931 
	C69.115204,161.381607 54.615253,149.757416 50.677818,131.435654 
	C49.264008,124.856873 49.275318,117.887154 49.300091,111.098267 
	C49.418976,78.517380 63.154140,54.069981 93.016678,39.734604 
	C96.860405,37.889435 101.389809,37.472637 105.454697,37.281803 
z"/>
<path fill="#F3F3F3" opacity="1.000000" stroke="none" 
	d="
M105.528137,36.837982 
	C101.389809,37.472637 96.860405,37.889435 93.016678,39.734604 
	C63.154140,54.069981 49.418976,78.517380 49.300091,111.098267 
	C49.275318,117.887154 49.264008,124.856873 50.677818,131.435654 
	C54.615253,149.757416 69.115204,161.381607 90.091286,164.278931 
	C112.218010,167.335190 131.057312,159.810089 147.967346,146.328171 
	C151.410538,143.582993 155.005630,140.119995 152.909973,134.875839 
	C151.442093,131.202667 146.816422,130.096573 140.466492,132.159317 
	C135.111786,133.898773 129.990585,136.358139 124.769058,138.506256 
	C118.379837,141.134781 113.726845,139.943939 110.883575,134.942688 
	C108.316185,130.426712 110.098190,124.779778 115.162621,121.051117 
	C123.777405,114.708527 133.453995,113.292999 143.638840,115.347755 
	C154.226440,117.483772 161.156052,128.903152 159.221283,140.341705 
	C157.420029,150.990860 151.119827,158.770126 143.024796,165.308975 
	C118.804924,184.872894 81.921288,186.660645 58.411594,168.913895 
	C39.722546,154.806107 33.083607,134.580688 34.682301,112.379059 
	C37.219795,77.139961 54.400429,49.804317 85.053665,32.076424 
	C100.528503,23.126751 117.938622,21.310757 135.362396,26.076027 
	C152.824326,30.851723 159.063553,45.050365 151.448425,61.476543 
	C144.039978,77.456886 132.637726,90.519623 119.906647,102.327858 
	C111.777000,109.868202 103.072166,116.954094 93.878586,123.132790 
	C85.496460,128.766129 81.109909,126.105347 82.403305,116.010857 
	C83.830917,104.868828 86.488693,93.772217 89.761444,83.005623 
	C94.444969,67.597908 100.172798,52.507629 105.528137,36.837982 
M145.679993,50.225098 
	C142.555206,41.749023 135.478516,37.847889 127.667366,35.012753 
	C119.028374,31.877134 114.214050,33.657005 110.129318,41.973545 
	C107.210976,47.915310 104.790504,54.159462 102.753090,60.464264 
	C98.200233,74.553108 93.987366,88.784210 94.498589,103.825478 
	C94.753845,111.335587 96.799736,112.432594 102.760071,108.040810 
	C119.852425,95.446526 133.865677,80.039093 143.594513,61.055393 
	C145.109772,58.098709 145.137039,54.379459 145.679993,50.225098 
z"/>
<path fill="#060606" opacity="1.000000" stroke="none" 
	d="
M145.766190,50.618965 
	C145.137039,54.379459 145.109772,58.098709 143.594513,61.055393 
	C133.865677,80.039093 119.852425,95.446526 102.760071,108.040810 
	C96.799736,112.432594 94.753845,111.335587 94.498589,103.825478 
	C93.987366,88.784210 98.200233,74.553108 102.753090,60.464264 
	C104.790504,54.159462 107.210976,47.915310 110.129318,41.973545 
	C114.214050,33.657005 119.028374,31.877134 127.667366,35.012753 
	C135.478516,37.847889 142.555206,41.749023 145.766190,50.618965 
z"/>
</svg>